<?xml version="1.0" encoding="UTF-8"?><svg id="Art" xmlns="http://www.w3.org/2000/svg" xmlns:xlink="http://www.w3.org/1999/xlink" viewBox="0 0 100 100"><defs><style>.cls-1{fill:url(#linear-gradient);}.cls-2{fill:#fff;}</style><linearGradient id="linear-gradient" x1="15.84936" y1="-1425.13771" x2="84.15064" y2="-1306.83644" gradientTransform="translate(0 -1315.98707) scale(1 -1)" gradientUnits="userSpaceOnUse"><stop offset="0" stop-color="#0845bf"/><stop offset=".6" stop-color="#0b5cff"/><stop offset="1" stop-color="#4f90ee"/></linearGradient></defs><g id="icon_ZM_bleed"><path id="container" class="cls-1" d="m0,0h100v100H0V0Z"/><path id="logo_ZM_wordmark" class="cls-2" d="m29.86217,57.65696h-12.40324c-.87023,0-1.64774-.51954-1.98075-1.32352s-.15056-1.72117.4648-2.33642l8.59125-8.59121h-6.15751c-1.69153,0-3.06279-1.37125-3.06279-3.06279h11.4385c.87016,0,1.64763.51939,1.98068,1.32337.33309.80398.15075,1.72102-.46454,2.33657l-8.59128,8.59121h7.1221c1.69153,0,3.06279,1.37125,3.06279,3.06279Zm54.8239-9.57121c0-3.29324-2.67923-5.97244-5.97244-5.97244-1.76155,0-3.34693.76704-4.44104,1.98416-1.09411-1.21711-2.67949-1.98416-4.44104-1.98416-3.29321,0-5.97244,2.67919-5.97244,5.97244v9.57121c1.69153,0,3.06279-1.37126,3.06279-3.06278v-6.50843c0-1.60437,1.30527-2.90965,2.90965-2.90965s2.90965,1.30527,2.90965,2.90965v6.50843c0,1.69153,1.37126,3.06278,3.06279,3.06278v-9.57121c0-1.60437,1.30527-2.90965,2.90965-2.90965s2.90965,1.30527,2.90965,2.90965v6.50843c0,1.69153,1.37126,3.06278,3.06278,3.06278v-9.57121Zm-22.35835,1.91424c0,4.3557-3.53098,7.88668-7.88668,7.88668s-7.88668-3.53098-7.88668-7.88668,3.53099-7.88668,7.88668-7.88668,7.88668,3.53098,7.88668,7.88668Zm-3.06279,0c0-2.66416-2.15973-4.82389-4.82389-4.82389s-4.82389,2.15973-4.82389,4.82389,2.15973,4.82389,4.82389,4.82389,4.82389-2.15973,4.82389-4.82389Zm-13.93568,0c0,4.3557-3.53098,7.88668-7.88668,7.88668s-7.88668-3.53098-7.88668-7.88668,3.53099-7.88668,7.88668-7.88668,7.88668,3.53098,7.88668,7.88668Zm-3.06279,0c0-2.66416-2.15973-4.82389-4.82389-4.82389s-4.82389,2.15973-4.82389,4.82389,2.15973,4.82389,4.82389,4.82389,4.82389-2.15973,4.82389-4.82389Z"/></g></svg>